HIERARCHY
ROOT joint_Root
{
	OFFSET 0.0 0.0 0.0
	CHANNELS 6 Xposition Yposition Zposition Zrotation Xrotation Yrotation 
	JOINT Hips
	{
		OFFSET 4.5925 91.4895 -427.239
		CHANNELS 6 Xposition Yposition Zposition Zrotation Xrotation Yrotation 
		JOINT Spine
		{
			OFFSET 15.7357 0.0 0.0
			CHANNELS 6 Xposition Yposition Zposition Zrotation Xrotation Yrotation 
			JOINT Chest
			{
				OFFSET 8.98455 -0.406207 0.0
				CHANNELS 6 Xposition Yposition Zposition Zrotation Xrotation Yrotation 
				JOINT Neck
				{
					OFFSET 16.3773 0.0 0.0
					CHANNELS 6 Xposition Yposition Zposition Zrotation Xrotation Yrotation 
					JOINT Head
					{
						OFFSET 6.45672 0.0 0.0
						CHANNELS 6 Xposition Yposition Zposition Zrotation Xrotation Yrotation 
						End Site
						{
							OFFSET 0.0 0.0 0.0
						}
					}
				}
				JOINT Shoulder_L
				{
					OFFSET 12.9942 -0.242716 4.98039
					CHANNELS 6 Xposition Yposition Zposition Zrotation Xrotation Yrotation 
					JOINT UpperArm_L
					{
						OFFSET 5.34809 0.0 0.0
						CHANNELS 6 Xposition Yposition Zposition Zrotation Xrotation Yrotation 
						JOINT LowerArm_L
						{
							OFFSET 24.3286 1.87007e-05 0.0
							CHANNELS 6 Xposition Yposition Zposition Zrotation Xrotation Yrotation 
							JOINT Hand_L
							{
								OFFSET 22.2916 0.0 0.0
								CHANNELS 6 Xposition Yposition Zposition Zrotation Xrotation Yrotation 
								End Site
								{
									OFFSET 0.0 0.0 0.0
								}
							}
						}
					}
				}
				JOINT Shoulder_R
				{
					OFFSET 12.9945 -0.242716 -4.98039
					CHANNELS 6 Xposition Yposition Zposition Zrotation Xrotation Yrotation 
					JOINT UpperArm_R
					{
						OFFSET -5.34813 0.0 0.0
						CHANNELS 6 Xposition Yposition Zposition Zrotation Xrotation Yrotation 
						JOINT LowerArm_R
						{
							OFFSET -24.3289 0.000322201 0.0
							CHANNELS 6 Xposition Yposition Zposition Zrotation Xrotation Yrotation 
							JOINT Hand_R
							{
								OFFSET -22.2915 -0.000108084 0.0
								CHANNELS 6 Xposition Yposition Zposition Zrotation Xrotation Yrotation 
								End Site
								{
									OFFSET 0.0 0.0 0.0
								}
							}
						}
					}
				}
			}
		}
		JOINT UpperLeg_L
		{
			OFFSET -2.19248 -6.46944 0.0
			CHANNELS 6 Xposition Yposition Zposition Zrotation Xrotation Yrotation 
			JOINT LowerLeg_L
			{
				OFFSET 39.0811 0.0 -1.23785e-05
				CHANNELS 6 Xposition Yposition Zposition Zrotation Xrotation Yrotation 
				JOINT Foot_L
				{
					OFFSET 40.9854 0.0 -1.26872e-05
					CHANNELS 6 Xposition Yposition Zposition Zrotation Xrotation Yrotation 
					JOINT Toes_L
					{
						OFFSET 11.7543 0.0 0.0
						CHANNELS 6 Xposition Yposition Zposition Zrotation Xrotation Yrotation 
						End Site
						{
							OFFSET 0.0 0.0 0.0
						}
					}
				}
			}
		}
		JOINT UpperLeg_R
		{
			OFFSET -2.19251 6.46944 0.0
			CHANNELS 6 Xposition Yposition Zposition Zrotation Xrotation Yrotation 
			JOINT LowerLeg_R
			{
				OFFSET -39.0811 -0.00228153 -0.0401928
				CHANNELS 6 Xposition Yposition Zposition Zrotation Xrotation Yrotation 
				JOINT Foot_R
				{
					OFFSET -40.9854 0.0 0.0
					CHANNELS 6 Xposition Yposition Zposition Zrotation Xrotation Yrotation 
					JOINT Toes_R
					{
						OFFSET -11.7543 0.0 0.0
						CHANNELS 6 Xposition Yposition Zposition Zrotation Xrotation Yrotation 
						End Site
						{
							OFFSET 0.0 0.0 0.0
						}
					}
				}
			}
		}
	}
}
MOTION
Frames:	4
Frame Time:	0.0333333
0.000000 0.000000 0.000000 0.000000 0.000000 -0.000000 2.630880 90.305700 -0.137197 89.337400 -6.603530 13.130300 15.735700 0.000005 -0.000001 96.459400 82.169700 -98.749300 8.984550 -0.406207 -0.000000 7.837260 1.753050 -4.695580 16.377300 -0.000001 -0.000001 21.556000 1.954570 0.274229 6.456720 -0.000001 -0.000000 7.922940 3.030640 -9.351010 12.994200 -0.242716 4.980390 -91.717800 4.542930 -69.261600 5.348090 -0.000007 -0.000001 -62.062500 33.115500 -13.914800 24.328600 0.000019 0.000005 9.144810 25.294200 -20.644200 22.291600 -0.000001 0.000005 9.872020 5.285980 0.461978 12.994500 -0.242716 -4.980390 90.258500 -0.870124 -73.450200 -5.348130 -0.000001 -0.000004 -58.672600 -45.228800 -76.941300 -24.328900 0.000322 -0.000009 7.220970 2.118510 -73.738700 -22.291500 -0.000108 -0.000004 25.083400 5.429510 -3.922200 -2.192480 -6.469440 -0.000000 -175.427000 -15.532500 3.715380 39.081100 -0.000007 -0.000012 -0.136101 0.213590 32.505700 40.985400 -0.000006 -0.000013 2.084390 2.982470 -72.950200 11.754300 -0.000000 0.000003 -0.000183 -0.001721 -16.642600 -2.192510 6.469440 -0.000001 170.253000 19.753900 -175.682000 -39.081100 -0.002282 -0.040193 -0.164611 0.271711 31.715000 -40.985400 0.000008 0.000006 1.774030 13.278700 -71.486500 -11.754300 -0.000006 -0.000006 -0.003343 -0.044421 -18.379800
0.000000 0.000000 0.000000 0.000000 0.000000 -0.000000 2.670280 90.318100 -0.130180 89.269800 -6.833790 13.122400 15.735700 0.000005 -0.000001 96.416200 82.106500 -98.712300 8.984550 -0.406207 -0.000000 7.964260 1.752680 -4.709950 16.377300 -0.000001 -0.000001 21.896100 1.894330 0.251918 6.456720 -0.000001 -0.000000 8.124500 2.881280 -9.328470 12.994200 -0.242716 4.980390 -91.713900 4.531580 -69.257500 5.348090 -0.000007 -0.000001 -62.264400 33.063700 -13.601200 24.328600 0.000019 0.000005 9.083250 25.477800 -20.388000 22.291600 -0.000001 0.000005 9.775810 5.290110 0.347981 12.994500 -0.242716 -4.980390 90.257100 -0.863088 -73.412900 -5.348130 -0.000001 -0.000004 -58.839100 -45.084900 -77.110400 -24.328900 0.000322 -0.000009 7.166380 2.141430 -73.452600 -22.291500 -0.000108 -0.000004 24.914500 5.433010 -4.042740 -2.192480 -6.469440 -0.000000 -175.332000 -15.747000 3.774090 39.081100 -0.000007 -0.000012 -0.133735 0.210240 32.460900 40.985400 -0.000006 -0.000013 2.107650 2.971740 -72.953500 11.754300 -0.000000 0.000003 -0.000185 -0.001737 -16.643200 -2.192510 6.469440 -0.000001 170.288000 19.792600 -175.666000 -39.081100 -0.002282 -0.040193 -0.155473 0.257656 31.642200 -40.985400 0.000008 0.000006 1.948590 13.473500 -71.470700 -11.754300 -0.000006 -0.000006 -0.003613 -0.047351 -18.499100
0.000000 0.000000 0.000000 0.000000 0.000000 -0.000000 2.708700 90.326200 -0.118045 89.239700 -7.062940 13.094800 15.735700 0.000005 -0.000001 96.475700 82.067100 -98.791400 8.984550 -0.406207 -0.000000 8.041630 1.776020 -4.752150 16.377300 -0.000001 -0.000001 22.158800 1.794850 0.253528 6.456720 -0.000001 -0.000000 8.323040 2.723040 -9.323710 12.994200 -0.242716 4.980390 -91.712400 4.528830 -69.263000 5.348090 -0.000007 -0.000001 -62.371000 33.075200 -13.315900 24.328600 0.000019 0.000005 9.068370 25.688000 -20.214100 22.291600 -0.000001 0.000005 9.845030 5.286380 0.451027 12.994500 -0.242716 -4.980390 90.257000 -0.860792 -73.372400 -5.348130 -0.000001 -0.000004 -58.953600 -44.968600 -77.267700 -24.328900 0.000322 -0.000009 7.319880 2.233490 -73.126600 -22.291500 -0.000108 -0.000004 24.884200 5.429420 -3.919190 -2.192480 -6.469440 -0.000000 -175.280000 -15.951400 3.814820 39.081100 -0.000007 -0.000012 -0.131617 0.207292 32.413300 40.985400 -0.000006 -0.000013 2.121140 2.947430 -72.959500 11.754300 -0.000000 0.000003 -0.000190 -0.001774 -16.644600 -2.192510 6.469440 -0.000001 170.276000 19.779600 -175.688000 -39.081100 -0.002282 -0.040193 -0.160346 0.266332 31.568300 -40.985400 0.000008 0.000006 1.895080 13.739200 -71.388400 -11.754300 -0.000006 -0.000006 -0.003579 -0.046989 -18.484300
0.000000 0.000000 0.000000 0.000000 0.000000 -0.000000 2.730330 90.330700 -0.099048 89.202600 -7.281180 12.979100 15.735700 0.000005 -0.000001 96.622700 82.081500 -98.952400 8.984550 -0.406207 -0.000000 8.009670 1.813680 -4.782130 16.377300 -0.000001 -0.000001 22.360800 1.711290 0.304009 6.456720 -0.000001 -0.000000 8.517060 2.578390 -9.391040 12.994200 -0.242716 4.980390 -91.698400 4.492220 -69.264900 5.348090 -0.000007 -0.000001 -62.465000 33.070600 -13.075100 24.328600 0.000019 0.000005 8.996660 25.825200 -19.973100 22.291600 -0.000001 0.000005 9.859940 5.287160 0.429399 12.994500 -0.242716 -4.980390 90.268000 -0.896651 -73.360300 -5.348130 -0.000001 -0.000004 -59.027700 -44.884800 -77.313300 -24.328900 0.000322 -0.000009 7.248060 2.249700 -72.851000 -22.291500 -0.000108 -0.000004 24.859500 5.430690 -3.963050 -2.192480 -6.469440 -0.000000 -175.218000 -16.199800 3.765310 39.081100 -0.000007 -0.000012 -0.129462 0.204094 32.388200 40.985400 -0.000006 -0.000013 2.137540 2.976680 -72.982400 11.754300 -0.000000 0.000003 -0.000200 -0.001849 -16.647300 -2.192510 6.469440 -0.000001 170.356000 19.672800 -175.810000 -39.081100 -0.002282 -0.040193 -0.163086 0.271420 31.509100 -40.985400 0.000008 0.000006 1.815000 13.858500 -71.324400 -11.754300 -0.000006 -0.000006 -0.003352 -0.044528 -18.384100
